<?xml version="1.0" encoding="utf-8"?>
<!-- Generator: Adobe Illustrator 19.0.0, SVG Export Plug-In . SVG Version: 6.00 Build 0)  -->
<svg xmlns="http://www.w3.org/2000/svg" xmlns:xlink="http://www.w3.org/1999/xlink" version="1.1" x="0px" y="0px" viewBox="0 0 841.9 595.3" style="enable-background:new 0 0 841.9 595.3;" xml:space="preserve">
<style type="text/css">
	.st0{opacity:0.1;fill:#020303;}
	.st1{display:none;}
	.st2{display:inline;}
	.st3{fill:#010101;}
	.st4{fill:#FFFFFF;}
	.st5{fill-rule:evenodd;clip-rule:evenodd;fill:#F1F2F2;stroke:#000000;stroke-width:1.2229;stroke-miterlimit:2.6131;}
	.st6{fill-rule:evenodd;clip-rule:evenodd;fill:#F1F2F2;}
	.st7{fill-rule:evenodd;clip-rule:evenodd;fill:#F3F4F4;}
	.st8{fill-rule:evenodd;clip-rule:evenodd;fill:#F6F6F6;}
	.st9{fill-rule:evenodd;clip-rule:evenodd;fill:#F8F8F9;}
	.st10{fill-rule:evenodd;clip-rule:evenodd;fill:#FBFBFB;}
	.st11{fill-rule:evenodd;clip-rule:evenodd;fill:#C53647;}
	.st12{fill-rule:evenodd;clip-rule:evenodd;fill:#CA3C4B;}
	.st13{fill-rule:evenodd;clip-rule:evenodd;fill:#CE4250;}
	.st14{fill-rule:evenodd;clip-rule:evenodd;fill:#D24654;}
	.st15{fill-rule:evenodd;clip-rule:evenodd;fill:#D64C58;}
	.st16{fill-rule:evenodd;clip-rule:evenodd;fill:#DC535F;}
	.st17{fill-rule:evenodd;clip-rule:evenodd;fill:#FDBA12;}
	.st18{fill-rule:evenodd;clip-rule:evenodd;fill:#FEBE1F;}
	.st19{fill-rule:evenodd;clip-rule:evenodd;fill:#FFC22C;}
	.st20{fill-rule:evenodd;clip-rule:evenodd;fill:#FFC43B;}
	.st21{fill-rule:evenodd;clip-rule:evenodd;fill:#FFC843;}
	.st22{fill-rule:evenodd;clip-rule:evenodd;fill:#FFCC4E;}
	.st23{fill-rule:evenodd;clip-rule:evenodd;fill:#FFFFFF;}
	.st24{fill:none;stroke:#F1F2F2;stroke-width:0.9349;stroke-miterlimit:2.6131;}
	.st25{fill:none;stroke:#FDBA12;stroke-width:0.9349;stroke-miterlimit:2.6131;}
</style>


<g id="Vector_Logo">
	<g>
		<path class="st5" d="M653.3,447c6.4,0,11.6-5.2,11.6-11.6V152.6c0-6.4-5.2-11.7-11.6-11.7h-465c-6.5,0-11.7,5.3-11.7,11.7v282.9    c0,6.4,5.2,11.6,11.7,11.6H653.3L653.3,447z"/>
		<polygon class="st6" points="266,142.7 644.5,445.2 585.5,445.2 202.1,142.7 266,142.7   "/>
		<polygon class="st7" points="589.9,445.1 206.4,142.6 262.7,142.6 641.1,445.1 589.9,445.1   "/>
		<polygon class="st8" points="594.3,445.1 210.8,142.6 259.2,142.6 637.6,445.1 594.3,445.1   "/>
		<polygon class="st8" points="598.7,445.1 215.2,142.6 255.8,142.6 634.2,445.1 598.7,445.1   "/>
		<polygon class="st9" points="603.1,445.1 219.6,142.6 252.4,142.6 630.9,445.1 603.1,445.1   "/>
		<polygon class="st10" points="249,142.7 627.5,445.2 607.5,445.2 224.1,142.7 249,142.7   "/>
		<path class="st11" d="M184.2,293.9c0-77.9,63.1-141,141-141c77.9,0,141,63.1,141,141s-63.1,141-141,141    C247.4,434.9,184.2,371.8,184.2,293.9L184.2,293.9z"/>
		<path class="st11" d="M285.4,158.7c-13.8,4.8-28.6,10.2-39.9,18.9l216.1,168.4c5.3-12.7,8.7-26.3,10.1-40.2L285.4,158.7    L285.4,158.7z"/>
		<path class="st12" d="M283.1,159.5l188.3,148.9c-1.4,11.9-4.1,23.8-8.9,35.1L248.1,176C257.7,168.7,271.5,163.5,283.1,159.5    L283.1,159.5z"/>
		<path class="st13" d="M280.9,160.3L471,311.1c-1.4,9.7-3.3,19.9-7.5,30L250.8,174.5C258.6,168.5,271.6,163.6,280.9,160.3    L280.9,160.3z"/>
		<path class="st14" d="M278.6,161l192.1,152.8c-1.4,7.6-2.6,16-6.3,24.8L253.4,173C259.5,168.2,271.6,163.6,278.6,161L278.6,161z"/>
		<path class="st15" d="M276.3,161.8l194,154.7c-1.5,5.5-1.9,12.2-5,19.7L256,171.5C260.4,168.1,271.6,163.8,276.3,161.8    L276.3,161.8z"/>
		<path class="st16" d="M274,162.6c-2.4,1.3-12.7,5.3-15.4,7.4l207.6,163.7c2.5-6.2,2.2-11.2,3.7-14.5L274,162.6L274,162.6z"/>
		<path class="st17" d="M375.2,293.9c0-77.9,63.1-141,141-141c77.9,0,141,63.1,141,141s-63.1,141-141,141    C438.3,434.9,375.2,371.8,375.2,293.9L375.2,293.9z"/>
		<path class="st17" d="M375.9,280.1c1.4-14.5,5-28.5,10.5-41.5L599,408.2c-11.2,8.1-23.5,14.6-36.9,19.2L375.9,280.1L375.9,280.1z"/>
		<path class="st18" d="M385.6,240.8L597,409.5c-10,7.3-20.7,12.5-31.8,16.6L376.3,277C377.8,264.4,381,252.4,385.6,240.8    L385.6,240.8z"/>
		<path class="st19" d="M384.7,242.8l210.5,168c-8.9,6.4-17.7,10.5-26.9,14.1L376.8,273.7C378.3,263.1,381,253.2,384.7,242.8    L384.7,242.8z"/>
		<path class="st20" d="M383.8,244.9l209.4,167.2c-7.7,5.5-14.8,8.5-21.8,11.6L377.1,270.5C378.6,262,381,254,383.8,244.9    L383.8,244.9z"/>
		<path class="st21" d="M382.9,247.1l208.4,166.4c-6.6,4.8-11.8,6.4-16.8,9.1L377.6,267.4C379.1,260.8,381.1,254.9,382.9,247.1    L382.9,247.1z"/>
		<path class="st22" d="M377.9,264.2c1.6-4.5,3.1-8.4,4-15l207.5,165.5c-5.4,4-8.9,4.4-11.9,6.6L377.9,264.2L377.9,264.2z"/>
		<path class="st11" d="M420.8,397.6h-55v-8h63C427.2,391.3,421.8,396.8,420.8,397.6L420.8,397.6z"/>
		<path class="st11" d="M436,381.1h-70.3v-8h76.2C441.9,373.1,437.3,380.1,436,381.1L436,381.1z"/>
		<path class="st11" d="M447.2,364.4h-81.5v-8h86C450.1,359.9,447.5,363.9,447.2,364.4L447.2,364.4z"/>
		<path class="st11" d="M455.5,347.8h-89.8v-8h92.7C458.4,339.8,457.1,344.8,455.5,347.8L455.5,347.8z"/>
		<path class="st11" d="M461.2,331.2h-95.5v-8h97.5C462.6,326.5,461.4,330.7,461.2,331.2L461.2,331.2z"/>
		<polygon class="st11" points="463.2,323.1 461.3,331.1 440.5,331.1 430.3,323.1 463.2,323.1   "/>
		<polygon class="st12" points="461.3,330.9 443.8,330.3 434.7,323.1 463.2,323.1 462.2,327.2 461.3,330.9   "/>
		<polygon class="st13" points="461.4,330.7 447.2,329.5 439.2,323.2 463.1,323.1 462.2,327.1 461.4,330.7   "/>
		<polygon class="st14" points="461.4,330.4 450.5,328.5 443.6,323.1 463.1,323.1 462.3,326.9 461.4,330.4   "/>
		<polygon class="st15" points="461.6,330.2 454,327.7 448.1,323.1 463.1,323.1 462.4,326.8 461.6,330.2   "/>
		<polygon class="st16" points="463.1,323.1 462.5,326.6 461.7,329.9 457.3,326.8 452.5,323.1 463.1,323.1   "/>
		<path class="st11" d="M464.7,314.6h-99v-8h99.9C465.5,309.7,464.7,314.6,464.7,314.6L464.7,314.6z"/>
		<polygon class="st11" points="465.7,306.6 464.8,314.6 419.3,314.6 409.2,306.6 465.7,306.6   "/>
		<polygon class="st12" points="423.8,314.6 413.9,306.6 463.3,306.6 464.7,314.6 423.8,314.6   "/>
		<polygon class="st13" points="428.4,314.6 418.5,306.7 461,306.6 464.7,314.6 428.4,314.6   "/>
		<polygon class="st14" points="433,314.6 423.1,306.7 458.7,306.6 464.7,314.6 433,314.6   "/>
		<polygon class="st15" points="437.6,314.6 427.7,306.7 456.4,306.6 464.7,314.6 437.6,314.6   "/>
		<polygon class="st16" points="454.1,306.6 464.7,314.5 442.3,314.6 432.3,306.6 454.1,306.6   "/>
		<path class="st11" d="M466.1,297.9H365.6l0.1-8h100.4C466.3,293.7,466.4,295.3,466.1,297.9L466.1,297.9z"/>
		<polygon class="st11" points="451.9,290.1 462,298.1 398.1,298.1 388.2,290.1 451.9,290.1   "/>
		<polygon class="st12" points="402.7,298 392.8,290.1 448.3,290 458.3,298 402.7,298   "/>
		<polygon class="st13" points="407.2,297.9 397.3,290 444.5,290 454.5,297.9 407.2,297.9   "/>
		<polygon class="st14" points="411.8,297.9 401.8,290 440.9,290 450.9,297.9 411.8,297.9   "/>
		<polygon class="st15" points="416.4,297.9 406.4,290 437.1,290 447.1,297.9 416.4,297.9   "/>
		<polygon class="st16" points="433.4,290 443.3,297.8 420.9,297.9 410.8,290 433.4,290   "/>
		<path class="st11" d="M465.7,281.4h-100v-8H465C465.7,277.2,465.7,281.4,465.7,281.4L465.7,281.4z"/>
		<polygon class="st11" points="430.8,273.4 440.9,281.4 377,281.4 377.8,273.4 430.8,273.4   "/>
		<polygon class="st12" points="427.1,273.4 437.2,281.4 381.6,281.4 380.2,273.4 427.1,273.4   "/>
		<polygon class="st13" points="423.4,273.4 433.4,281.4 386.1,281.4 382.5,273.4 423.4,273.4   "/>
		<polygon class="st14" points="419.7,273.4 429.8,281.4 390.8,281.4 385,273.4 419.7,273.4   "/>
		<polygon class="st15" points="415.9,273.4 426,281.4 395.4,281.4 387.4,273.4 415.9,273.4   "/>
		<polygon class="st16" points="412.2,273.4 422.3,281.4 400,281.4 389.7,273.4 412.2,273.4   "/>
		<path class="st11" d="M463.2,264.7h-86l2.5-8h81.6C462.3,259.7,463.2,264.7,463.2,264.7L463.2,264.7z"/>
		<polygon class="st11" points="409.4,256.7 419.5,264.7 389.8,264.7 390.5,256.7 409.4,256.7   "/>
		<polygon class="st12" points="405.9,256.7 416,264.7 387.6,264.7 388.3,256.7 405.9,256.7   "/>
		<polygon class="st13" points="402.4,256.7 412.5,264.7 385.2,264.7 386,256.7 402.4,256.7   "/>
		<polygon class="st14" points="398.9,256.7 409,264.7 383,264.7 383.7,256.7 398.9,256.7   "/>
		<polygon class="st15" points="395.4,256.7 405.5,264.7 380.7,264.7 381.4,256.7 395.4,256.7   "/>
		<polygon class="st16" points="391.9,256.7 402,264.7 378.3,264.7 379.1,256.7 391.9,256.7   "/>
		<path class="st11" d="M458.7,248.1h-77.3l3.7-8h70.6C457.3,243.9,458.7,248.1,458.7,248.1L458.7,248.1z"/>
		<path class="st11" d="M451.7,231.5h-64.4l0.2-8h60C447.5,223.5,450.6,229.1,451.7,231.5L451.7,231.5z"/>
		<path class="st11" d="M442.2,214.9h-76.5v-8h70.6C436.2,206.9,440.9,213,442.2,214.9L442.2,214.9z"/>
		<path class="st11" d="M429,198.3h-63.3v-8h55.1C420.8,190.3,426.7,195.5,429,198.3L429,198.3z"/>
		<polygon class="st23" points="260.9,320 248.2,320 259.8,265.4 259.6,265.4 235.8,320 222.4,320 222.1,265.4 221.9,265.4     210.3,320 197.5,320 211.5,254.6 231.4,254.6 232.3,306.2 232.5,306.2 255.1,254.6 274.8,254.6 260.9,320   "/>
		<path class="st23" d="M357,281.1c-3.9-0.2-10-1.9-17.1-1.1c-6.9,0.7-8.4,2.5-8.9,4.6c-1.6,7.7,29.9,2.2,26.1,20    c-3,14.1-17.1,16.6-24.7,16.6c-11.1,0-14-0.5-20.4-2.4l1.9-9.4c3.9,0.8,12.2,2.7,19.5,2.4c6.6-0.2,10.2-3.5,10.6-5.3    c1.7-8.1-29.7-2-25.8-20.2c1.5-7.1,7.9-16.2,23-16.2c9.5,0,15.8,2,17.6,2.3L357,281.1L357,281.1z"/>
		<path class="st23" d="M364.2,280.7l4.7-22.2h12.7l-2.7,13.1h7.9l-1.9,9.1h-7.9l-5.6,26.3c-0.6,2.9-0.7,4,4.5,4    c0.8,0,1.7-0.1,2.7-0.2l-1.8,8.6c-2,0.1-4.3,1.3-6.3,1.3h-1.6c-11,0-12.1-4.2-10.7-10.5L364.2,280.7L364.2,280.7z"/>
		<path class="st23" d="M394.9,299c-0.4,3.6-1.1,13.2,9.1,13.2c3.5,0,12.6,0.6,22.2-5.5l-2,9.1c-7.9,5.5-16.6,5.5-22.7,5.5    c-13.6,0-22.8-6.6-18.5-26.4c1.3-5.8,7.3-24.6,28.4-24.6c9.6,0,21.8,4.6,17.1,26.7l-0.4,2.2h-34l2.1-8.2h20.5    c0.9-7.8-3.6-10.2-7.7-10.2c-6,0-10,3.8-12.1,10.2L394.9,299L394.9,299z"/>
		<path class="st23" d="M436.6,271.6h12.2l-1.8,8.4h0.2c3.7-4.9,7.6-9.6,15.3-9.6c0.9,0,2.7,0.4,3.5,0.4l-4.7,12.6    c-1-0.1-1.6-0.1-2.7-0.1c-9.9,0-13.1,6.2-14.3,11.5l-5.3,25.3h-12.7L436.6,271.6L436.6,271.6z"/>
		<path class="st23" d="M513.6,267.2c-2.9-2.1-9.3-3.5-15.9-2.4c-6.5,1-17.1,4.3-21.1,22.8c-2,9.4-0.9,20.7,9.6,22.9    c3,0.6,16.3,1.7,21.2-3.5l-3.5,11.9c-1.5,0.5-2.9,3.8-18.6,3c-17.4-1-27.4-11.8-22.6-34.4c4.8-22.8,20.5-34.6,37.4-34.5    c8.6,0.1,15.2,4.8,15.8,6.1L513.6,267.2L513.6,267.2z"/>
		<path class="st23" d="M628.5,320H616l1.3-6h-0.1c-4.3,5.5-10.4,7.3-15.6,7.3c-14.4,0-17.7-12.7-14.9-26c3.6-16.8,14.8-25,25.5-25    c8.2,0,11.1,4.5,12.4,7.6h0.2l4.9-23.3h12.7L628.5,320L628.5,320z"/>
		<path class="st17" d="M606.9,310.8c8.1,0,12.7-6.7,14.3-13.9c1.7-7.8,1.1-15.6-7.6-15.6c-8.1,0-12.3,7.2-14,14.9    C598.3,301.9,598.7,310.8,606.9,310.8L606.9,310.8z"/>
		<path class="st23" d="M551.6,309.7c0,0-1.2,5.2-1.5,7.8l-0.6,2.5h-11.3c-0.2-2.3-0.3-3,0-5.8c-3.5,3-8.5,7-17.1,7    c-7.3,0-13.9-4.1-11.7-14c2-9.5,9-14.3,17.4-15.5l11.8-1.7c2.1-0.3,4.7-1.1,5.3-3.8c1.1-5.4-4-6.4-7.2-6.5    c-6.7-0.3-17.4,1.7-19.5,3.2l2.9-9.4c5.3-2.5,11.6-3.4,20.3-3.2c6.8,0.2,18.9,2.1,16.6,13.8L551.6,309.7L551.6,309.7z"/>
		<path class="st17" d="M541.6,296.4c-1.4,0.9-3.7,1.8-9.2,2.6c-4.9,0.9-9.1,2-10.2,7.3c-1,4.5,2.2,5.8,4.7,5.8    c5.6,0,12.2-3.7,13.4-9.6L541.6,296.4L541.6,296.4z"/>
		<path class="st23" d="M563.4,271.6h12.2l-1.8,8.4h0.2c3.7-4.9,7.6-9.6,15.3-9.6c0.9,0,2.7,0.4,3.5,0.4l-4.7,12.6    c-1-0.1-1.6-0.1-2.7-0.1c-9.9,0-13.1,6.2-14.3,11.5l-5.3,25.3h-12.7L563.4,271.6L563.4,271.6z"/>
		<path class="st23" d="M309.1,309.7c0,0-1.2,5.2-1.5,7.8l-0.6,2.5h-11.3c-0.2-2.3-0.3-3,0-5.8c-3.5,3-8.5,7-17.1,7    c-7.3,0-13.9-4.1-11.7-14c2-9.5,9-14.3,17.4-15.5L296,290c2.1-0.3,4.7-1.1,5.3-3.8c1.1-5.4-4-6.4-7.2-6.5    c-6.7-0.3-17.4,1.7-19.5,3.2l2.9-9.4c5.3-2.5,11.6-3.4,20.3-3.2c6.8,0.2,18.9,2.1,16.6,13.8L309.1,309.7L309.1,309.7z"/>
		<path class="st11" d="M299.1,296.4c-1.4,0.9-3.7,1.8-9.2,2.6c-4.9,0.9-9.1,2-10.2,7.3c-1,4.5,2.2,5.8,4.7,5.8    c5.6,0,12.2-3.7,13.4-9.6L299.1,296.4L299.1,296.4z"/>
		<path class="st24" d="M640.9,320.1c2.7,0,4.9-2.2,4.9-4.9s-2.2-5-4.9-5c-2.7,0-4.9,2.2-4.9,5S638.3,320.1,640.9,320.1     M639.2,317.9v-5.2 M639.2,312.7c0,0,3.6-0.6,3.7,1.2c0.1,2.5-3.5,2-3.5,2 M641.9,315.6l1.4,2.1"/>
		<path class="st25" d="M640.9,383.7c2.7,0,4.9-2.2,4.9-4.9c0-2.7-2.2-5-4.9-5c-2.7,0-4.9,2.2-4.9,5    C636,381.5,638.3,383.7,640.9,383.7 M639.2,381.4v-5.2 M639.2,376.3c0,0,3.6-0.6,3.7,1.2c0.1,2.5-3.5,2-3.5,2 M641.9,379.2    l1.4,2.1"/>
	</g>
</g>
</svg>
